<?xml version="1.0" encoding="utf-8"?>
<!-- Generator: Adobe Illustrator 25.2.1, SVG Export Plug-In . SVG Version: 6.00 Build 0)  -->
<svg version="1.1" id="Layer_1" xmlns="http://www.w3.org/2000/svg" xmlns:xlink="http://www.w3.org/1999/xlink" x="0px" y="0px"
	 viewBox="0 0 1350 1080" style="enable-background:new 0 0 1350 1080;" xml:space="preserve">
<style type="text/css">
	.st0{fill:#A58B83;}
	.st1{fill:#4A3638;}
	.st2{fill:url(#SVGID_1_);}
	.st3{fill:#EE8A6D;}
	.st4{fill:url(#SVGID_2_);}
	.st5{fill:#160B05;}
	.st6{fill:#E4DEE9;}
	.st7{fill:url(#SVGID_3_);}
	.st8{fill:none;stroke:#000000;stroke-width:3.0421;stroke-linecap:round;stroke-linejoin:round;stroke-miterlimit:10;}
	.st9{fill:none;stroke:#000000;stroke-width:6.0842;stroke-linecap:round;stroke-linejoin:round;stroke-miterlimit:10;}
</style>
<g>
	<g>
		<path class="st0" d="M1010.5,349.6c0,185.3-150.2,335.5-335.5,335.5c-14.2,0-28.2-0.9-42-2.6l-3.7-0.5c-7.1-1-14.1-2.1-21-3.5
			c-0.4-0.1-0.9-0.2-1.3-0.3c-3.1-0.6-6.2-1.3-9.2-2c-25.2-5.9-49.4-14.7-72.1-26c-93.3-46.4-162-135.1-181-241
			c-2.7-14.9-4.4-30.1-5-45.6c-0.2-4.6-0.3-9.3-0.3-14c0-25.6,2.9-50.5,8.3-74.5c33.9-149.4,167.5-261,327.2-261
			c70,0,135.1,21.5,188.9,58.2c9.5,6.5,18.7,13.5,27.5,20.9C964.2,154.7,1010.5,246.8,1010.5,349.6z"/>
		<path class="st1" d="M970.8,344.8c-2.8,11.7-113.5,146-113.5,146L774,530l-60.7,28.6l-78.6,121.3l-1.7,2.6l-3.7-0.5
			c-7.1-1-14.1-2.1-21-3.5c-0.4-0.1-0.9-0.2-1.3-0.3c-3.1-0.6-6.2-1.3-9.2-2c-25.2-5.9-49.4-14.7-72.1-26
			c-93.3-46.4-162-135.1-181-241c-2.7-14.9-4.4-30.1-5-45.6c9.8,17.4,32,49.7,59.3,46.4c126.3-15.5,167.5-189,228.4-252.9
			c50.7-53.2,93.1-56.6,105.8-56.2c2.6,0.1,4,0.3,4,0.3l79.8-15.8c0,0,106.6,56.1,106.6,60S973.6,333.1,970.8,344.8z"/>
		<linearGradient id="SVGID_1_" gradientUnits="userSpaceOnUse" x1="607.0471" y1="303.8061" x2="821.799" y2="486.8333">
			<stop  offset="0" style="stop-color:#FFFFFF"/>
			<stop  offset="1" style="stop-color:#000000"/>
		</linearGradient>
		<path class="st2" d="M970.8,344.8c-2.8,11.7-113.5,146-113.5,146L774,530l-60.7,28.6l-78.6,121.3l-1.7,2.6l-3.7-0.5
			c-7.1-1-14.1-2.1-21-3.5c-0.4-0.1-0.9-0.2-1.3-0.3c-3.1-0.6-6.2-1.3-9.2-2c-25.2-5.9-49.4-14.7-72.1-26
			c-93.3-46.4-162-135.1-181-241c-2.7-14.9-4.4-30.1-5-45.6c9.8,17.4,32,49.7,59.3,46.4c126.3-15.5,167.5-189,228.4-252.9
			c50.7-53.2,93.1-56.6,105.8-56.2c2.6,0.1,4,0.3,4,0.3l79.8-15.8c0,0,106.6,56.1,106.6,60S973.6,333.1,970.8,344.8z"/>
		<polygon class="st3" points="824.3,402 889.4,473.6 939.8,408.5 926.8,314.2 863.3,337 		"/>
		<linearGradient id="SVGID_2_" gradientUnits="userSpaceOnUse" x1="847.8176" y1="395.1505" x2="925.9091" y2="393.5236">
			<stop  offset="0" style="stop-color:#FFFFFF"/>
			<stop  offset="1" style="stop-color:#EE8A6D"/>
		</linearGradient>
		<polygon class="st4" points="824.3,402 889.4,473.6 939.8,408.5 926.8,314.2 863.3,337 		"/>
		<g>
			<path class="st3" d="M700.3,282.4c11,16.2,27.3,29.6,33,48.4c2.7,9.1,2.7,18.9,5.3,28.1c4,14.4,14.1,26.3,24,37.5
				c15.5,17.5,33.6,35.9,56.9,37.7c17.4,1.3,34.1-7.2,48.3-17.4c15.9-11.5,30.1-25.8,39.1-43.1c11.1-21.1,14-45.6,14.3-69.5
				c0.6-39.9-6-80.9-25.9-115.5s-54.6-62.1-94.3-66.6c-32.8-3.7-63.4,10.2-84.9,34.4c-7.5,8.4-15.7,15.7-20.7,26
				c-7.2,14.8-11.2,31-11,47.5C684.6,248.5,689.8,267,700.3,282.4z"/>
			<path class="st3" d="M719.3,380.9c-0.6,1.3,47.8-3.7,47-8.3c-4.5-25.6-10.3-45.4-14.8-71c-1.1-6.3-2.6-13.2-8-17.8
				c-3.9-3.3-12-4.6-15.6-1.2c-3.1,3-0.6,8.7,0.2,12.4C730.7,307.5,740.7,337.5,719.3,380.9z"/>
		</g>
		<path class="st1" d="M751.2,170.1c0,56.1-34.8,104.3-84.7,125.4c-18-21.7-28.7-49.5-28.7-79.8c0-57.1,38.3-105.3,90.5-120.3
			C742.8,116.9,751.2,142.6,751.2,170.1z"/>
		<path class="st3" d="M511,415.8l24.9-1.1l-1.5-33.7c-0.6-13.7-12.2-24.4-26-23.8h0c-13.7,0.6-24.4,12.2-23.8,26l0.4,8.8
			C485.6,405.8,497.2,416.4,511,415.8z"/>
		<path class="st5" d="M774.3,534.4c3.3,77-56.3,142.1-133.3,145.4c-77,3.3-142.1-56.3-145.4-133.3c-0.2-5.4-0.2-10.7,0.2-15.9
			c0.5-7.5,1.6-14.9,3.3-22.1C513,449.2,565,403.8,628.9,401.1c48.9-2.1,93.1,21.2,119.6,58.3c8.1,11.3,14.5,23.8,19,37.3
			C771.3,508.6,773.7,521.2,774.3,534.4z"/>
		<path class="st0" d="M767.4,496.6c-4.9,69.8-61.5,126.4-133.1,129.5c-63.8,2.8-119.5-37.8-138.5-95.6c0.5-7.5,1.6-14.9,3.3-22.1
			C513,449.2,565,403.8,628.9,401.1c48.9-2.1,93.1,21.2,119.6,58.3C756.5,470.6,763,483.1,767.4,496.6z"/>
		<path class="st6" d="M748.5,459.3c-13.9,59.3-65.9,104.7-129.8,107.5c-48.9,2.1-93.1-21.2-119.6-58.3
			C513,449.2,565,403.8,628.9,401.1C677.8,398.9,721.9,422.3,748.5,459.3z"/>
		<circle class="st5" cx="619.5" cy="446.4" r="74.3"/>
		<path class="st3" d="M721.6,405.9c2.2,50.4-43,93.2-100.9,95.7c-57.9,2.5-106.6-36.3-108.8-86.6c-0.4-8.3,0.6-16.5,2.7-24.3
			c1.3-4.9,2-9.8,2.2-14.8c0.2-5.3-0.2-10.7-1.2-16c-0.7-4-1.2-8-1.4-12.2c-0.8-18.1,3.9-35.3,12.6-50.1c1.5-2.5,3.1-5,4.9-7.4
			c3-4.2,6.4-8.1,10.1-11.8c3.1-3.1,6.4-6,9.9-8.7c10.5-8,22.7-14,36-17.5c6.5-1.7,13.3-2.8,20.3-3.2c0.6,0,1.2-0.1,1.8-0.1
			c10.4-0.5,20.6,0.6,30.1,3c2.6,0.7,5.2,1.4,7.8,2.3c9.5,3.2,18.3,7.7,26.3,13.4c7.1,5.1,13.5,11,19,17.7
			c12.2,14.9,19.7,33.4,20.6,53.7c0.2,4.1,0.1,8.2-0.3,12.2c-0.4,4.8-0.5,9.7,0,14.5c0.6,5.5,1.7,10.9,3.6,16.1
			C719.6,389.5,721.3,397.5,721.6,405.9z"/>
		<linearGradient id="SVGID_3_" gradientUnits="userSpaceOnUse" x1="559.1425" y1="262.919" x2="717.7661" y2="477.6709">
			<stop  offset="0" style="stop-color:#160B05"/>
			<stop  offset="1" style="stop-color:#EE8A6D"/>
		</linearGradient>
		<path class="st7" d="M713.2,351.3c0.4-4,0.5-8.1,0.3-12.2c-0.9-20.3-8.4-38.8-20.6-53.7c-5.5-6.7-11.8-12.7-19-17.7
			c-7.9-5.6-16.8-10.2-26.3-13.4c-2.5-0.9-5.1-1.6-7.8-2.3c0,0,0,0,0,0c8.4-16.8,11.6-35.8,0.5-49.3c-4.5-5.5-11.6-8.5-18.6-9.7
			c-26.2-4.7-54.3,14.6-59.3,40.8c5.8-11.4,16.4-20.2,28.6-24c10.8-3.3,25.1-1.1,29.3,9.4c3.2,8.2-1.3,17.3-6.8,24.1
			c-1.7,2.1-3.5,4.1-5.5,5.9c0,0,0,0,0,0c-1.2,0.1-2.4,0.1-3.6,0.3c-0.6,0.1-1.2,0.1-1.8,0.2c-1.2,0.1-2.3,0.3-3.5,0.4
			c-0.7,0.1-1.4,0.2-2.1,0.3c-1.1,0.2-2.1,0.4-3.2,0.6c-0.7,0.1-1.3,0.3-2,0.4c-1.1,0.2-2.2,0.5-3.3,0.8c-0.3,0.1-0.6,0.1-0.9,0.2
			c0,0,0,0,0,0c-13.3,3.5-25.5,9.5-36,17.5c0,0,0,0,0,0c-0.2,0.2-0.4,0.3-0.6,0.5c-1.3,1-2.6,2-3.8,3.1c-0.4,0.4-0.8,0.7-1.2,1.1
			c-1.5,1.3-2.9,2.6-4.3,4c-1.3,1.3-2.5,2.6-3.7,4c-0.3,0.3-0.5,0.6-0.8,0.9c-1.2,1.3-2.3,2.7-3.3,4c-0.2,0.3-0.4,0.6-0.7,0.9
			c-0.5,0.7-1,1.3-1.5,2c0,0,0,0,0,0c-1.7,2.4-3.4,4.8-4.9,7.4c-8.7,14.8-13.4,31.9-12.6,50.1c0.2,4.1,0.6,8.2,1.4,12.2
			c1,5.3,1.4,10.7,1.2,16c23-5.2,40.5-24.3,43.6-47.8c8.3,3.3,17.4,5,26.9,4.6c17.6-0.8,33.2-8.5,44.4-20.4
			c4.7,1.1,9.7,1.5,14.8,1.3c6.2-0.3,12.1-1.5,17.5-3.6c3.1,27.5,23.2,49.6,49.3,55.8C712.7,361,712.8,356.1,713.2,351.3z"/>
		<path class="st8" d="M784.8,389.4c0,0,36.5,7.8,36.5-24.8"/>
		<g>
			<path d="M771,293.7c4.8,1.5,9.6,2.3,14.5,2.5c4.8,0.2,9.6-0.5,14-2.2c2.2-0.8,4.2-2.1,6.1-3.5c1-0.7,1.9-1.5,2.7-2.3
				c0.4-0.4,0.8-0.9,1.3-1.3c0.4-0.4,0.8-0.8,1.2-1.3c3.1-3.6,5.7-7.9,7.9-12.4c-1.1,4.9-3,9.7-6.1,13.8c-3,4.2-7.2,7.6-12.1,9.6
				c-2.4,0.9-5,1.6-7.6,1.9c-2.6,0.3-5.2,0.3-7.7-0.1C780.2,297.9,775.3,296.3,771,293.7z"/>
		</g>
		<path class="st9" d="M816.8,236c-11.4-6.5-25.6-7.8-37.9-3.5s-22.7,14.1-27.6,26.2"/>
		<path class="st1" d="M1010.5,353.3c-2,184.5-154,333.5-338.5,331.8c-13.2-0.1-26.1-1-38.9-2.6l-3.7-0.5c-7.1-1-14.1-2.1-21-3.5
			c-0.4-0.1-0.9-0.2-1.3-0.3c-3.1-0.6-6.2-1.3-9.2-2c-25.2-5.9-49.4-14.7-72.1-26l11.3-10.4l33.5-30.9
			c55.8-51.3,123.5-87.8,197.1-106.3c0.5-0.1,1-0.3,1.5-0.4c35.8-9.2,76.6-27.4,111.6-62.7c84.6-85.3,4.2-246,4.2-246l-107-22.8
			l-45.7-69.4c0,0,0.4-0.2,1.2-0.5c4.2-1.7,19.4-7.6,41.5-13.2c39.3-9.9,79.7-7.5,116.5,5.5C965.1,155.5,1011.6,249,1010.5,353.3z"
			/>
		<path class="st1" d="M895.7,213.8c0,2.6-0.1,5.1-0.2,7.7c-11,2.6-22.5,4.1-34.3,4.1c-74.4,0-135.5-55.7-141-126.3
			c5.1-2.3,10.4-4.2,15.8-5.7c11-3.2,22.6-4.8,34.6-4.8C839.6,88.7,895.7,144.7,895.7,213.8z"/>
		<path class="st3" d="M943.3,314.9l-33.1,6.3l-8.5-44.8c-3.5-18.3,8.5-35.9,26.8-39.4l0,0c18.3-3.5,35.9,8.5,39.4,26.8l2.2,11.7
			C973.6,293.8,961.6,311.4,943.3,314.9z"/>
		<g>
			<g>
				<g>
					<g>
						<path d="M569.3,376.6c2.3,3.9,4.7,7.7,7.5,10.9c1.4,1.6,2.9,3.1,4.7,4.2c1.7,1.1,3.6,1.7,5.4,1.5c1.8-0.1,3.6-1.1,5.2-2.4
							l0.6-0.5c0.2-0.2,0.4-0.4,0.6-0.5c0.4-0.4,0.8-0.7,1.1-1.1l1-1.2l0.5-0.6l0.5-0.7c2.6-3.5,4.9-7.3,7.2-11.2
							c-1.2,4.4-2.8,8.6-5.3,12.5c-0.5,1-1.3,1.9-2,2.9c-0.4,0.5-0.8,0.9-1.2,1.3c-0.2,0.2-0.4,0.4-0.6,0.7l-0.7,0.6
							c-1.8,1.6-4.1,3-6.8,3.2c-2.7,0.2-5.3-0.7-7.2-2.2c-2-1.5-3.6-3.2-4.9-5.1C572.3,385.2,570.5,381,569.3,376.6z"/>
					</g>
					<g>
						<path d="M639.2,373.6c2.3,3.9,4.7,7.7,7.5,10.9c1.4,1.6,2.9,3.1,4.7,4.2c1.7,1.1,3.6,1.7,5.4,1.5c1.8-0.1,3.6-1.1,5.2-2.4
							l0.6-0.5c0.2-0.2,0.4-0.4,0.6-0.5c0.4-0.4,0.8-0.7,1.1-1.1l1-1.2l0.5-0.6l0.5-0.7c2.6-3.5,4.9-7.3,7.2-11.2
							c-1.2,4.4-2.8,8.6-5.3,12.5c-0.5,1-1.3,1.9-2,2.9c-0.4,0.5-0.8,0.9-1.2,1.3c-0.2,0.2-0.4,0.4-0.6,0.7l-0.7,0.6
							c-1.8,1.6-4.1,3-6.8,3.2c-2.7,0.2-5.3-0.7-7.2-2.2c-2-1.5-3.6-3.2-4.9-5.1C642.2,382.2,640.4,378,639.2,373.6z"/>
					</g>
				</g>
				<path class="st8" d="M602.4,423c0,0,12,26.9,38.2-1.7"/>
			</g>
			<g>
				<path d="M671.7,378.4l7.3,3.9l-8.3,0.4c-1.3,0.1-2.3-0.9-2.4-2.2c-0.1-1.3,0.9-2.3,2.2-2.4C670.9,378.1,671.3,378.2,671.7,378.4
					z"/>
			</g>
			<g>
				<path d="M668.6,384.9l4.9,6l-7.4-2.4c-1.2-0.4-1.9-1.7-1.5-2.9s1.7-1.9,2.9-1.5C668,384.3,668.3,384.6,668.6,384.9z"/>
			</g>
			<g>
				<path d="M664.3,392.2c-0.5,1.2-0.4,3.1,0.6,4.7c-1.8-0.4-3.8-1.7-4.9-3.9l-0.3-0.6c-0.7-1.3-0.2-2.8,1.1-3.5
					c1.3-0.7,2.8-0.2,3.5,1.1C664.6,390.8,664.6,391.6,664.3,392.2z"/>
			</g>
			<g>
				<path d="M570.9,383l-7.7,4.4l4.7-7.6c0.7-1.1,2.1-1.4,3.1-0.7c1.1,0.7,1.4,2.1,0.7,3.1C571.5,382.6,571.2,382.8,570.9,383z"/>
			</g>
			<g>
				<path d="M574.3,388.7l-5.9,4l2.5-6.7c0.4-1.2,1.8-1.8,3-1.4c1.2,0.4,1.8,1.8,1.4,3C575.1,388,574.7,388.4,574.3,388.7z"/>
			</g>
			<g>
				<path d="M579.6,394.2c-1.7,1.1-3.3,2.7-4.4,4.8c-0.4-2.3-0.1-4.9,0.8-7.4l0.1-0.2c0.5-1.2,1.8-1.8,3.1-1.4
					c1.2,0.5,1.8,1.8,1.4,3.1C580.3,393.6,580,394,579.6,394.2z"/>
			</g>
		</g>
		<g>
			<path d="M779.1,299.3c-4.5,3.8-9.9,6.4-15.3,7.6c5-2.6,9.1-6.3,12.1-10.6c0.7-1,2.1-1.3,3.1-0.6c1,0.7,1.3,2.1,0.6,3.1
				C779.4,299,779.3,299.1,779.1,299.3L779.1,299.3z"/>
		</g>
		<g>
			<path d="M787,300.2c-4.1,5.7-9.6,10.3-15.6,13.2c5.2-4.2,9.3-9.6,11.8-15.4c0.5-1.1,1.8-1.6,2.9-1.2c1.1,0.5,1.6,1.8,1.2,2.9
				C787.2,299.9,787.1,300,787,300.2L787,300.2z"/>
		</g>
		<g>
			<path d="M795.5,299.9c-3.2,4.8-7.3,8.8-11.9,11.8c3.6-4.1,6.3-8.9,8-13.8c0.4-1.2,1.7-1.8,2.8-1.4c1.2,0.4,1.8,1.7,1.4,2.8
				C795.7,299.5,795.6,299.7,795.5,299.9L795.5,299.9z"/>
		</g>
		<g>
			<path d="M805,296.2c-0.4,4.4-3.3,7.7-6.6,8.8c2.6-2.4,3.2-6,2.2-8.4c-0.5-1.2,0.1-2.5,1.3-3c1.2-0.5,2.5,0.1,3,1.3
				c0.1,0.3,0.2,0.7,0.2,1L805,296.2z"/>
		</g>
	</g>
	<g>
		<path class="st1" d="M254.2,947.9c-8.8,0-17.4-1.1-25.9-3.4c-8.5-2.2-16.4-5.5-23.6-9.7c-7.3-4.2-13.4-9-18.5-14.6l26.7-27
			c4.9,5.3,10.7,9.5,17.5,12.4c6.7,3,14.1,4.4,22.1,4.4c5.5,0,9.8-0.8,12.7-2.5c3-1.6,4.4-3.9,4.4-6.7c0-3.7-1.8-6.5-5.4-8.4
			c-3.6-1.9-8.1-3.7-13.6-5.2c-5.5-1.5-11.3-3.2-17.5-5.1c-6.1-1.8-12-4.4-17.5-7.7c-5.5-3.3-10-7.8-13.5-13.6
			c-3.5-5.8-5.2-13.2-5.2-22.2c0-9.6,2.5-17.9,7.4-25s11.8-12.6,20.8-16.7c9-4.1,19.5-6.1,31.6-6.1c12.7,0,24.4,2.2,35.1,6.6
			c10.7,4.4,19.5,10.9,26.2,19.5l-26.7,27c-4.7-5.5-10-9.4-15.8-11.6c-5.8-2.2-11.5-3.4-17-3.4c-5.3,0-9.3,0.8-12,2.3
			c-2.7,1.5-4,3.7-4,6.6c0,3.1,1.7,5.5,5.2,7.4c3.5,1.8,8,3.5,13.5,4.9c5.5,1.4,11.3,3.2,17.5,5.2c6.1,2,12,4.8,17.5,8.3
			c5.5,3.5,10,8.1,13.5,13.9c3.5,5.8,5.2,13.4,5.2,22.8c0,14.5-5.5,26.1-16.4,34.6C287.5,943.6,272.7,947.9,254.2,947.9z"/>
		<path class="st1" d="M412,947.6c-15.3,0-29.2-3.4-41.5-10.3c-12.4-6.8-22.1-16.2-29.3-28c-7.2-11.8-10.7-25.1-10.7-39.8
			s3.6-27.9,10.7-39.5c7.2-11.6,16.9-20.9,29.1-27.7c12.3-6.8,26.2-10.3,41.7-10.3c15.5,0,29.4,3.4,41.7,10.1
			c12.3,6.7,22,16,29.1,27.7c7.2,11.8,10.7,25,10.7,39.7s-3.6,28-10.7,39.8c-7.2,11.9-16.9,21.2-29.1,28
			C441.4,944.1,427.5,947.6,412,947.6z M412,905c6.7,0,12.7-1.5,17.8-4.4c5.1-3,9-7.2,11.8-12.6c2.8-5.4,4.1-11.6,4.1-18.5
			c0-6.9-1.4-13-4.3-18.2c-2.9-5.2-6.8-9.3-11.8-12.3c-5-3-10.9-4.4-17.6-4.4c-6.5,0-12.4,1.5-17.5,4.4c-5.1,3-9.1,7.1-12,12.4
			c-2.9,5.3-4.3,11.4-4.3,18.4c0,6.7,1.4,12.8,4.3,18.2c2.9,5.4,6.8,9.6,12,12.6C399.6,903.5,405.5,905,412,905z"/>
		<path class="st1" d="M666,829.9c-6.2-11.6-14.8-20.8-25.7-27.6c-10.9-6.7-23.4-10.1-37.5-10.1c-10,0-19.2,2-27.6,6.1
			c-4.2,2-7.9,4.4-11.3,7.2v-10.3h-46.9V1007h46.3v-73c3.6,2.9,7.5,5.3,12,7.4c8.4,3.9,17.6,5.8,27.6,5.8c14.1,0,26.6-3.4,37.5-10.1
			c10.9-6.7,19.5-15.9,25.7-27.6c6.2-11.6,9.3-24.9,9.3-39.8C675.3,854.8,672.2,841.5,666,829.9z M623.5,887.8
			c-2.9,5.3-6.8,9.5-11.8,12.6c-5,3.1-10.9,4.6-17.6,4.6c-6.3,0-12.1-1.5-17.2-4.6c-5.1-3.1-9-7.3-11.8-12.6
			c-2.8-5.3-4.1-11.3-4.1-18.1c0-6.9,1.4-13.1,4.3-18.4c2.9-5.3,6.8-9.4,11.8-12.4c5-3,10.8-4.4,17.3-4.4c6.5,0,12.3,1.5,17.3,4.4
			c5,3,8.9,7.1,11.8,12.4c2.9,5.3,4.3,11.4,4.3,18.4C627.8,876.4,626.4,882.5,623.5,887.8z"/>
		<path class="st1" d="M837.3,819.3c-4.8-8.5-11.6-15.1-20.4-19.9c-8.8-4.8-19-7.2-30.7-7.2c-11.4,0-21.6,2.4-30.3,7.2
			c-3.6,2-6.9,4.3-9.8,6.9v-84.6h-46.9v222.5h46.9v-84.9c0-5.1,1.1-9.7,3.4-13.6c2.2-4,5.3-7,9.2-9.2c3.9-2.1,8.4-3.2,13.5-3.2
			c7.4,0,13.4,2.4,18.2,7.2c4.8,4.8,7.2,11.1,7.2,18.9v84.9h46.9v-95.3C844.5,837.6,842.1,827.8,837.3,819.3z"/>
		<path class="st1" d="M878.8,944.2V727.8H927v216.4H878.8z"/>
		<path class="st1" d="M1115.8,944.2h50.9l-84.9-216.4h-43.5l-85.8,216.4h50l14.4-39.2h84.8L1115.8,944.2z M1031.2,865.7l28.3-77.2
			l27.9,77.2H1031.2z"/>
	</g>
</g>
</svg>
